<svg xmlns="http://www.w3.org/2000/svg" viewBox="0 0 800 450" role="img" aria-label="Nebula Notes cover">
  <defs>
    <linearGradient id="bg" x1="0" y1="0" x2="1" y2="1">
      <stop offset="0%" stop-color="#0c0a1d"/>
      <stop offset="100%" stop-color="#1e1b4b"/>
    </linearGradient>
    <radialGradient id="neb" cx="0.35" cy="0.3" r="0.6">
      <stop offset="0%" stop-color="#a78bfa" stop-opacity="0.55"/>
      <stop offset="100%" stop-color="#a78bfa" stop-opacity="0"/>
    </radialGradient>
    <radialGradient id="neb2" cx="0.75" cy="0.7" r="0.55">
      <stop offset="0%" stop-color="#22d3ee" stop-opacity="0.45"/>
      <stop offset="100%" stop-color="#22d3ee" stop-opacity="0"/>
    </radialGradient>
  </defs>
  <rect width="800" height="450" fill="url(#bg)"/>
  <rect width="800" height="450" fill="url(#neb)"/>
  <rect width="800" height="450" fill="url(#neb2)"/>
  <g fill="#ffffff" opacity="0.8">
    <circle cx="180" cy="90" r="2"/><circle cx="620" cy="70" r="1.6"/><circle cx="520" cy="160" r="2.4"/>
    <circle cx="300" cy="40" r="1.4"/><circle cx="700" cy="300" r="2"/><circle cx="120" cy="260" r="1.8"/>
    <circle cx="430" cy="330" r="1.4"/><circle cx="660" cy="200" r="1.2"/>
  </g>
  <g transform="translate(300 140)" fill="none" stroke="#ffffff" stroke-width="7" stroke-linecap="round" opacity="0.92">
    <path d="M0 0h130M0 34h100M0 68h115M0 102h84" stroke-opacity="0.95"/>
    <path d="M0 0h40M0 34h32M0 68h40M0 102h28" stroke="#22d3ee"/>
  </g>
  <text x="400" y="420" text-anchor="middle" font-family="Segoe UI, Arial, sans-serif" font-size="30" font-weight="700" fill="#ffffff" opacity="0.9">Nebula Notes</text>
</svg>
