<svg xmlns="http://www.w3.org/2000/svg" viewBox="0 0 480 400" role="img" aria-label="暴雨">
  <defs>
    <linearGradient id="sky" x1="0" y1="0" x2="0" y2="1">
      <stop offset="0%" stop-color="#1e293b"/>
      <stop offset="100%" stop-color="#334155"/>
    </linearGradient>
  </defs>
  <rect width="480" height="400" fill="url(#sky)"/>
  <g fill="#ffffff" opacity="0.08">
    <circle cx="90" cy="80" r="34"/><circle cx="180" cy="52" r="26"/><circle cx="310" cy="90" r="30"/><circle cx="400" cy="60" r="22"/>
  </g>
  <rect y="300" width="480" height="100" fill="#0f172a" opacity="0.85"/>
  <path d="M60 300v-60c0-44 36-80 80-80s80 36 80 80v60" fill="#0f172a" stroke="#ffffff" stroke-opacity="0.12"/>
  <path d="M220 300v-70c0-38 30-68 68-68s68 30 68 68v70" fill="#0f172a" stroke="#ffffff" stroke-opacity="0.12"/>
  <g stroke="#93c5fd" stroke-width="3" stroke-linecap="round" opacity="0.75">
    <path d="M120 70l-14 34M150 46l-14 34M220 80l-14 34M360 60l-14 34M320 96l-14 34M420 78l-14 34"/>
  </g>
  <g stroke="#7dd3fc" stroke-width="2.5" stroke-linecap="round" opacity="0.6">
    <path d="M96 200l-10 26M176 212l-10 26M296 214l-10 26M376 200l-10 26"/>
  </g>
  <text x="240" y="382" text-anchor="middle" font-family="Segoe UI, Arial, sans-serif" font-size="22" font-weight="600" fill="#e2e8f0">🌧️ 暴雨</text>
</svg>